<svg width="70" height="69" viewBox="0 0 70 69" fill="none" xmlns="http://www.w3.org/2000/svg">
<circle cx="33.4783" cy="35" r="33.4783" fill="#F3F5DB"/>
<path d="M30.699 39.764C30.699 38.732 30.855 37.844 31.167 37.1C31.503 36.356 31.923 35.708 32.427 35.156C32.955 34.58 33.507 34.052 34.083 33.572C34.659 33.068 35.199 32.564 35.703 32.06C36.231 31.532 36.651 30.956 36.963 30.332C37.299 29.684 37.467 28.916 37.467 28.028C37.467 26.636 36.915 25.496 35.811 24.608C34.731 23.696 33.183 23.24 31.167 23.24C29.559 23.24 28.155 23.492 26.955 23.996C25.779 24.476 24.771 25.22 23.931 26.228L22.599 25.184C23.559 24.032 24.759 23.156 26.199 22.556C27.663 21.932 29.355 21.62 31.275 21.62C32.907 21.62 34.323 21.872 35.523 22.376C36.747 22.88 37.683 23.6 38.331 24.536C39.003 25.448 39.339 26.528 39.339 27.776C39.339 28.832 39.171 29.732 38.835 30.476C38.523 31.22 38.103 31.88 37.575 32.456C37.071 33.032 36.531 33.572 35.955 34.076C35.379 34.556 34.827 35.06 34.299 35.588C33.795 36.116 33.375 36.716 33.039 37.388C32.727 38.06 32.571 38.852 32.571 39.764H30.699ZM31.635 47.144C31.227 47.144 30.879 47 30.591 46.712C30.303 46.4 30.159 46.052 30.159 45.668C30.159 45.26 30.303 44.912 30.591 44.624C30.879 44.336 31.227 44.192 31.635 44.192C32.067 44.192 32.427 44.336 32.715 44.624C33.003 44.912 33.147 45.26 33.147 45.668C33.147 46.052 33.003 46.4 32.715 46.712C32.427 47 32.067 47.144 31.635 47.144Z" fill="black"/>
<circle cx="57.826" cy="12.1739" r="12.1739" fill="url(#paint0_linear_59_40)"/>
<defs>
<linearGradient id="paint0_linear_59_40" x1="57.826" y1="0" x2="57.826" y2="28.1522" gradientUnits="userSpaceOnUse">
<stop stop-color="#DA9D9D"/>
<stop offset="0.850694" stop-color="#AB7878"/>
<stop offset="1" stop-color="#DA9D9D" stop-opacity="0"/>
</linearGradient>
</defs>
</svg>
