<svg width="46" height="45" viewBox="0 0 46 45" fill="none" xmlns="http://www.w3.org/2000/svg">
<circle cx="22" cy="23" r="22" fill="#F3F5DB"/>
<path d="M21.2048 25.98C21.2048 25.4067 21.2914 24.9133 21.4648 24.5C21.6514 24.0867 21.8848 23.7267 22.1648 23.42C22.4581 23.1 22.7648 22.8067 23.0848 22.54C23.4048 22.26 23.7048 21.98 23.9848 21.7C24.2781 21.4067 24.5114 21.0867 24.6848 20.74C24.8714 20.38 24.9648 19.9533 24.9648 19.46C24.9648 18.6867 24.6581 18.0533 24.0448 17.56C23.4448 17.0533 22.5848 16.8 21.4648 16.8C20.5714 16.8 19.7914 16.94 19.1248 17.22C18.4714 17.4867 17.9114 17.9 17.4448 18.46L16.7048 17.88C17.2381 17.24 17.9048 16.7533 18.7048 16.42C19.5181 16.0733 20.4581 15.9 21.5248 15.9C22.4314 15.9 23.2181 16.04 23.8848 16.32C24.5648 16.6 25.0848 17 25.4448 17.52C25.8181 18.0267 26.0048 18.6267 26.0048 19.32C26.0048 19.9067 25.9114 20.4067 25.7248 20.82C25.5514 21.2333 25.3181 21.6 25.0248 21.92C24.7448 22.24 24.4448 22.54 24.1248 22.82C23.8048 23.0867 23.4981 23.3667 23.2048 23.66C22.9248 23.9533 22.6914 24.2867 22.5048 24.66C22.3314 25.0333 22.2448 25.4733 22.2448 25.98H21.2048ZM21.7248 30.08C21.4981 30.08 21.3048 30 21.1448 29.84C20.9848 29.6667 20.9048 29.4733 20.9048 29.26C20.9048 29.0333 20.9848 28.84 21.1448 28.68C21.3048 28.52 21.4981 28.44 21.7248 28.44C21.9648 28.44 22.1648 28.52 22.3248 28.68C22.4848 28.84 22.5648 29.0333 22.5648 29.26C22.5648 29.4733 22.4848 29.6667 22.3248 29.84C22.1648 30 21.9648 30.08 21.7248 30.08Z" fill="black"/>
<circle cx="38" cy="8" r="8" fill="url(#paint0_linear_211_4)"/>
<defs>
<linearGradient id="paint0_linear_211_4" x1="38" y1="0" x2="38" y2="18.5" gradientUnits="userSpaceOnUse">
<stop stop-color="#DA9D9D"/>
<stop offset="0.850694" stop-color="#AB7878"/>
<stop offset="1" stop-color="#DA9D9D" stop-opacity="0"/>
</linearGradient>
</defs>
</svg>
