<svg width="191" height="88" viewBox="0 0 191 88" fill="none" xmlns="http://www.w3.org/2000/svg">
<rect width="190.667" height="88" rx="30" fill="#D53A3A"/>
<g clip-path="url(#clip0_234_4)">
<path d="M114.245 22.6733L109.781 26.6171L121.83 40.2727L126.294 36.329L114.245 22.6733Z" fill="#F86464"/>
<path d="M63.2949 36.3241L67.7593 40.2678L78.087 28.563L73.6226 24.6193L63.2949 36.3241Z" fill="#61C4F2"/>
<path d="M96.4184 61.8761L96.5001 61.7944C96.4713 61.82 96.444 61.8473 96.4184 61.8761Z" fill="#FABF62"/>
<path d="M120.824 40.687C117.784 42.8682 118.311 46.7842 113.06 51.0836" stroke="#263357" stroke-width="3" stroke-linecap="round" stroke-linejoin="round"/>
<path d="M83.9045 51.226L80.2886 54.8439C79.4741 55.6589 79.4741 56.9803 80.2886 57.7952L81.1992 58.7064C82.0137 59.5213 83.3343 59.5213 84.1488 58.7064L87.7647 55.0884C88.5791 54.2734 88.5791 52.9521 87.7647 52.1371L86.854 51.226C86.0395 50.411 84.7189 50.411 83.9045 51.226Z" stroke="#263357" stroke-width="3" stroke-linecap="round" stroke-linejoin="round"/>
<path d="M77.8299 49.6333L76.4884 50.9756C75.6739 51.7906 75.6739 53.1119 76.4884 53.9269L77.399 54.8381C78.2135 55.653 79.534 55.653 80.3485 54.8381L81.69 53.4957C82.5045 52.6808 82.5045 51.3595 81.69 50.5445L80.7794 49.6333C79.9649 48.8184 78.6444 48.8184 77.8299 49.6333Z" stroke="#263357" stroke-width="3" stroke-linecap="round" stroke-linejoin="round"/>
<path d="M96.6885 61.6122L95.0866 63.2276C94.9689 63.3465 94.8383 63.4519 94.6971 63.5419C94.1714 63.9004 93.5375 64.0651 92.9038 64.0078C92.2702 63.9505 91.6761 63.6746 91.2231 63.2276C90.7273 62.7064 90.4507 62.0143 90.4507 61.2947C90.4507 60.5752 90.7273 59.8831 91.2231 59.3619L92.8313 57.759C93.2772 57.3155 93.8618 57.0386 94.4872 56.9745C95.1127 56.9104 95.7412 57.0631 96.2676 57.407C96.4101 57.5024 96.5408 57.6142 96.6571 57.7402C96.7751 57.8542 96.8804 57.9807 96.9712 58.1173C97.3445 58.6393 97.5209 59.2767 97.4692 59.9165C97.4174 60.5563 97.1409 61.157 96.6885 61.6122Z" stroke="#263357" stroke-width="3" stroke-linecap="round" stroke-linejoin="round"/>
<path d="M88.5722 54.2765L84.2367 58.6145C83.4222 59.4295 83.4222 60.7508 84.2367 61.5658L85.1474 62.4769C85.9618 63.2919 87.2824 63.2919 88.0969 62.4769L92.4323 58.1389C93.2469 57.3239 93.2469 56.0026 92.4323 55.1877L91.5217 54.2765C90.7072 53.4615 89.3867 53.4615 88.5722 54.2765Z" stroke="#263357" stroke-width="3" stroke-linecap="round" stroke-linejoin="round"/>
<path d="M126.528 36.419L121.226 40.775L108.932 26.6636L113.336 22.5905" stroke="#263357" stroke-width="3" stroke-linecap="round" stroke-linejoin="round"/>
<path d="M76.1462 50.3104C75.4887 49.7716 74.8596 49.1987 74.2616 48.5944C72.8998 47.203 71.7751 45.5978 70.9321 43.8424C70.3435 42.5248 69.6829 41.2406 68.9533 39.9956C68.9212 39.9229 68.8789 39.8551 68.8276 39.7944" stroke="#263357" stroke-width="3" stroke-linecap="round" stroke-linejoin="round"/>
<path d="M94.3642 27.9333C93.1983 27.115 91.8599 26.5759 90.4525 26.3579C89.0451 26.14 87.6064 26.2488 86.2478 26.6762L85.7829 26.8144" stroke="#263357" stroke-width="3" stroke-linecap="round" stroke-linejoin="round"/>
<path d="M109.479 58.3813C108.966 58.8922 108.271 59.179 107.547 59.179C106.823 59.179 106.129 58.8922 105.615 58.3813" stroke="#263357" stroke-width="3" stroke-linecap="round" stroke-linejoin="round"/>
<path d="M98.8873 52.1333L105.534 58.2933C106.044 58.8068 106.331 59.5018 106.331 60.2262C106.331 60.9505 106.044 61.6455 105.534 62.159C104.968 62.6722 104.231 62.9565 103.467 62.9565C102.703 62.9565 101.966 62.6722 101.4 62.159L97.6309 59.0162" stroke="#263357" stroke-width="3" stroke-linecap="round" stroke-linejoin="round"/>
<path d="M63.7078 37.0476L67.8602 40.687L78.1565 29.5048" stroke="#263357" stroke-width="3" stroke-linecap="round" stroke-linejoin="round"/>
<path d="M112.708 50.8762L97.9764 35.9162L97.7 35.6459C97.3415 35.2811 96.854 35.0719 96.3427 35.0637C95.8314 35.0555 95.3373 35.2487 94.9673 35.6019C93.158 37.3367 90.1992 40.159 89.9919 40.3539C89.7585 40.5768 89.4835 40.7516 89.1825 40.8682C88.8816 40.9848 88.5606 41.0408 88.238 41.0333C87.9153 41.0257 87.5974 40.9545 87.3023 40.824C87.0071 40.6934 86.7406 40.5059 86.5179 40.2722L86.1473 39.8762C86.0772 39.801 86.0121 39.7212 85.9525 39.6373C85.5955 39.158 85.4253 38.5648 85.4739 37.9689C85.5224 37.3731 85.7864 36.8153 86.2164 36.4002L94.0878 28.8573C94.4601 28.5203 94.857 28.2114 95.2751 27.9333C96.4396 27.1146 97.777 26.5754 99.1835 26.3573C100.59 26.1393 102.028 26.2484 103.385 26.6762C105.609 27.355 107.462 27.4744 109.127 26.915" stroke="#263357" stroke-width="3" stroke-linecap="round" stroke-linejoin="round"/>
<path d="M95.7462 62.819C96.2329 63.4191 96.8901 63.8574 97.6308 64.0762C99.5154 64.7047 100.772 62.819 100.772 62.819" stroke="#263357" stroke-width="3" stroke-linecap="round" stroke-linejoin="round"/>
<line x1="63.4683" y1="25.3733" x2="125.985" y2="60.0023" stroke="#333030" stroke-width="3"/>
</g>
<path d="M130.667 42.6667C130.667 62.5489 114.549 78.6667 94.6667 78.6667C74.7844 78.6667 58.6667 62.5489 58.6667 42.6667C58.6667 22.7844 74.7844 6.66669 94.6667 6.66669C114.549 6.66669 130.667 22.7844 130.667 42.6667ZM62.9887 42.6667C62.9887 60.162 77.1714 74.3447 94.6667 74.3447C112.162 74.3447 126.345 60.162 126.345 42.6667C126.345 25.1714 112.162 10.9887 94.6667 10.9887C77.1714 10.9887 62.9887 25.1714 62.9887 42.6667Z" fill="#232121"/>
<defs>
<clipPath id="clip0_234_4">
<rect width="65.3333" height="44" fill="white" transform="translate(62.6667 21.3333)"/>
</clipPath>
</defs>
</svg>
