<svg width="68" height="68" viewBox="0 0 68 68" fill="none" xmlns="http://www.w3.org/2000/svg">
<circle cx="34" cy="34" r="34" fill="url(#paint0_linear_216_5)"/>
<g clip-path="url(#clip0_216_5)">
<path d="M48.6839 19.005L45.3356 21.9628L54.3723 32.2046L57.7208 29.2467L48.6839 19.005Z" fill="#F86464"/>
<path d="M10.4711 29.2431L13.8195 32.2009L21.5652 23.4223L18.2169 20.4645L10.4711 29.2431Z" fill="#61C4F2"/>
<path d="M35.3138 48.4072L35.375 48.3459C35.3535 48.3651 35.333 48.3855 35.3138 48.4072Z" fill="#FABF62"/>
<path d="M53.6181 32.5153C51.3377 34.1511 51.7335 37.0881 47.7946 40.3127" stroke="#263357" stroke-width="3" stroke-linecap="round" stroke-linejoin="round"/>
<path d="M25.9283 40.4195L23.2165 43.1329C22.6056 43.7442 22.6056 44.7352 23.2165 45.3464L23.8994 46.0298C24.5103 46.641 25.5007 46.641 26.1116 46.0298L28.8235 43.3163C29.4343 42.7051 29.4343 41.7141 28.8235 41.1028L28.1405 40.4195C27.5296 39.8082 26.5392 39.8082 25.9283 40.4195Z" stroke="#263357" stroke-width="3" stroke-linecap="round" stroke-linejoin="round"/>
<path d="M21.3724 39.225L20.3662 40.2317C19.7554 40.8429 19.7554 41.834 20.3662 42.4452L21.0492 43.1286C21.6601 43.7398 22.6505 43.7398 23.2614 43.1286L24.2675 42.1218C24.8784 41.5106 24.8784 40.5196 24.2675 39.9084L23.5845 39.225C22.9736 38.6138 21.9832 38.6138 21.3724 39.225Z" stroke="#263357" stroke-width="3" stroke-linecap="round" stroke-linejoin="round"/>
<path d="M35.5164 48.2091L34.315 49.4207C34.2267 49.5099 34.1287 49.589 34.0228 49.6564C33.6285 49.9253 33.1531 50.0488 32.6779 50.0058C32.2027 49.9628 31.7571 49.756 31.4174 49.4207C31.0455 49.0298 30.8381 48.5107 30.8381 47.9711C30.8381 47.4314 31.0455 46.9123 31.4174 46.5214L32.6235 45.3193C32.9579 44.9866 33.3963 44.7789 33.8654 44.7309C34.3346 44.6828 34.8059 44.7973 35.2007 45.0553C35.3076 45.1268 35.4056 45.2107 35.4928 45.3051C35.5814 45.3906 35.6603 45.4855 35.7284 45.588C36.0084 45.9795 36.1407 46.4575 36.1019 46.9374C36.0631 47.4172 35.8557 47.8678 35.5164 48.2091Z" stroke="#263357" stroke-width="3" stroke-linecap="round" stroke-linejoin="round"/>
<path d="M29.4291 42.7074L26.1775 45.9609C25.5666 46.5721 25.5666 47.5631 26.1775 48.1743L26.8605 48.8577C27.4713 49.4689 28.4617 49.4689 29.0726 48.8577L32.3242 45.6042C32.9351 44.9929 32.9351 44.002 32.3242 43.3908L31.6413 42.7074C31.0304 42.0962 30.04 42.0962 29.4291 42.7074Z" stroke="#263357" stroke-width="3" stroke-linecap="round" stroke-linejoin="round"/>
<path d="M57.8961 29.3143L53.9196 32.5813L44.6992 21.9977L48.0019 18.9429" stroke="#263357" stroke-width="3" stroke-linecap="round" stroke-linejoin="round"/>
<path d="M20.1097 39.7329C19.6165 39.3287 19.1447 38.8991 18.6962 38.4459C17.6749 37.4023 16.8313 36.1984 16.1991 34.8819C15.7576 33.8937 15.2621 32.9305 14.7149 31.9967C14.6909 31.9422 14.6592 31.8914 14.6207 31.8459" stroke="#263357" stroke-width="3" stroke-linecap="round" stroke-linejoin="round"/>
<path d="M33.7731 22.95C32.8987 22.3362 31.8949 21.932 30.8393 21.7685C29.7838 21.605 28.7048 21.6866 27.6858 22.0071L27.3372 22.1108" stroke="#263357" stroke-width="3" stroke-linecap="round" stroke-linejoin="round"/>
<path d="M45.1091 45.786C44.7241 46.1692 44.2033 46.3843 43.6603 46.3843C43.1173 46.3843 42.5964 46.1692 42.2115 45.786" stroke="#263357" stroke-width="3" stroke-linecap="round" stroke-linejoin="round"/>
<path d="M37.1654 41.1L42.1502 45.72C42.5332 46.1051 42.7481 46.6263 42.7481 47.1696C42.7481 47.7129 42.5332 48.2341 42.1502 48.6193C41.7256 49.0042 41.1731 49.2174 40.6001 49.2174C40.0271 49.2174 39.4747 49.0042 39.05 48.6193L36.2231 46.2621" stroke="#263357" stroke-width="3" stroke-linecap="round" stroke-linejoin="round"/>
<path d="M10.7808 29.7857L13.8951 32.5153L21.6173 24.1286" stroke="#263357" stroke-width="3" stroke-linecap="round" stroke-linejoin="round"/>
<path d="M47.5308 40.1571L36.4823 28.9371L36.2749 28.7344C36.0061 28.4608 35.6404 28.3039 35.257 28.2978C34.8735 28.2916 34.503 28.4366 34.2254 28.7014C32.8685 30.0026 30.6494 32.1193 30.4939 32.2654C30.3189 32.4326 30.1126 32.5637 29.8869 32.6511C29.6612 32.7386 29.4205 32.7806 29.1785 32.775C28.9365 32.7693 28.698 32.7159 28.4767 32.618C28.2553 32.52 28.0554 32.3794 27.8884 32.2041L27.6104 31.9071C27.5579 31.8507 27.509 31.7909 27.4644 31.728C27.1966 31.3685 27.069 30.9236 27.1054 30.4767C27.1418 30.0298 27.3398 29.6115 27.6623 29.3001L33.5658 23.643C33.8451 23.3902 34.1427 23.1586 34.4563 22.95C35.3297 22.336 36.3328 21.9315 37.3876 21.768C38.4424 21.6045 39.5208 21.6863 40.5389 22.0071C42.2068 22.5163 43.5967 22.6058 44.8452 22.1863" stroke="#263357" stroke-width="3" stroke-linecap="round" stroke-linejoin="round"/>
<path d="M34.8096 49.1143C35.1747 49.5643 35.6675 49.8931 36.2231 50.0571C37.6366 50.5285 38.5789 49.1143 38.5789 49.1143" stroke="#263357" stroke-width="3" stroke-linecap="round" stroke-linejoin="round"/>
<line x1="12.2985" y1="18.5989" x2="55.2985" y2="50.5989" stroke="#757171"/>
</g>
<path d="M61 34C61 48.9117 48.9117 61 34 61C19.0883 61 7 48.9117 7 34C7 19.0883 19.0883 7 34 7C48.9117 7 61 19.0883 61 34ZM7.47355 34C7.47355 48.6502 19.3498 60.5265 34 60.5265C48.6502 60.5265 60.5265 48.6502 60.5265 34C60.5265 19.3498 48.6502 7.47355 34 7.47355C19.3498 7.47355 7.47355 19.3498 7.47355 34Z" fill="#757171"/>
<defs>
<linearGradient id="paint0_linear_216_5" x1="34" y1="0" x2="34" y2="68" gradientUnits="userSpaceOnUse">
<stop stop-color="#D9D9D9"/>
<stop offset="1" stop-color="#696060" stop-opacity="0.6"/>
</linearGradient>
<clipPath id="clip0_216_5">
<rect width="49" height="33" fill="white" transform="translate(10 18)"/>
</clipPath>
</defs>
</svg>
