<svg width="92" height="88" viewBox="0 0 92 88" fill="none" xmlns="http://www.w3.org/2000/svg">
<rect width="92" height="88" rx="30" fill="#D9D9D9"/>
<g clip-path="url(#clip0_234_4)">
<path d="M66.4108 22.6733L61.7958 26.6171L74.251 40.2727L78.8662 36.329L66.4108 22.6733Z" fill="#F86464"/>
<path d="M13.743 36.3241L18.3579 40.2678L29.0338 28.563L24.4188 24.6193L13.743 36.3241Z" fill="#61C4F2"/>
<path d="M47.983 61.8761L48.0675 61.7944C48.0377 61.82 48.0095 61.8473 47.983 61.8761Z" fill="#FABF62"/>
<path d="M73.2115 40.687C70.0685 42.8682 70.6139 46.7842 65.1851 51.0836" stroke="#263357" stroke-width="3" stroke-linecap="round" stroke-linejoin="round"/>
<path d="M35.0473 51.226L31.3096 54.8439C30.4676 55.6589 30.4676 56.9803 31.3096 57.7952L32.2509 58.7064C33.0929 59.5213 34.4579 59.5213 35.2998 58.7064L39.0376 55.0884C39.8795 54.2734 39.8795 52.9521 39.0376 52.1371L38.0963 51.226C37.2543 50.411 35.8892 50.411 35.0473 51.226Z" stroke="#263357" stroke-width="3" stroke-linecap="round" stroke-linejoin="round"/>
<path d="M28.7679 49.6333L27.3812 50.9756C26.5393 51.7906 26.5393 53.1119 27.3812 53.9269L28.3225 54.8381C29.1645 55.653 30.5295 55.653 31.3715 54.8381L32.7582 53.4957C33.6002 52.6808 33.6002 51.3595 32.7582 50.5445L31.8169 49.6333C30.9749 48.8184 29.6099 48.8184 28.7679 49.6333Z" stroke="#263357" stroke-width="3" stroke-linecap="round" stroke-linejoin="round"/>
<path d="M48.2622 61.6122L46.6063 63.2276C46.4846 63.3465 46.3496 63.4519 46.2037 63.5419C45.6602 63.9004 45.005 64.0651 44.35 64.0078C43.695 63.9505 43.0809 63.6746 42.6126 63.2276C42.1001 62.7064 41.8142 62.0143 41.8142 61.2947C41.8142 60.5752 42.1001 59.8831 42.6126 59.3619L44.275 57.759C44.736 57.3155 45.3402 57.0386 45.9867 56.9745C46.6333 56.9104 47.283 57.0631 47.8272 57.407C47.9744 57.5024 48.1096 57.6142 48.2298 57.7402C48.3518 57.8542 48.4606 57.9807 48.5545 58.1173C48.9404 58.6393 49.1227 59.2767 49.0692 59.9165C49.0157 60.5563 48.7299 61.157 48.2622 61.6122Z" stroke="#263357" stroke-width="3" stroke-linecap="round" stroke-linejoin="round"/>
<path d="M39.8724 54.2765L35.3907 58.6145C34.5488 59.4295 34.5488 60.7508 35.3907 61.5658L36.3321 62.4769C37.174 63.2919 38.539 63.2919 39.381 62.4769L43.8626 58.1389C44.7046 57.3239 44.7046 56.0026 43.8626 55.1877L42.9213 54.2765C42.0793 53.4615 40.7143 53.4615 39.8724 54.2765Z" stroke="#263357" stroke-width="3" stroke-linecap="round" stroke-linejoin="round"/>
<path d="M79.1077 36.419L73.6271 40.775L60.9187 26.6636L65.4709 22.5905" stroke="#263357" stroke-width="3" stroke-linecap="round" stroke-linejoin="round"/>
<path d="M27.0275 50.3104C26.3479 49.7716 25.6976 49.1987 25.0794 48.5944C23.6717 47.203 22.5091 45.5978 21.6377 43.8424C21.0292 42.5248 20.3463 41.2406 19.5921 39.9956C19.559 39.9229 19.5153 39.8551 19.4623 39.7944" stroke="#263357" stroke-width="3" stroke-linecap="round" stroke-linejoin="round"/>
<path d="M45.8596 27.9333C44.6544 27.115 43.2709 26.5759 41.816 26.3579C40.3612 26.14 38.874 26.2488 37.4696 26.6762L36.989 26.8144" stroke="#263357" stroke-width="3" stroke-linecap="round" stroke-linejoin="round"/>
<path d="M61.4837 58.3813C60.9531 58.8922 60.2352 59.179 59.4868 59.179C58.7385 59.179 58.0205 58.8922 57.49 58.3813" stroke="#263357" stroke-width="3" stroke-linecap="round" stroke-linejoin="round"/>
<path d="M50.5351 52.1333L57.4055 58.2933C57.9334 58.8068 58.2297 59.5018 58.2297 60.2262C58.2297 60.9505 57.9334 61.6455 57.4055 62.159C56.8203 62.6722 56.0588 62.9565 55.2691 62.9565C54.4794 62.9565 53.7179 62.6722 53.1326 62.159L49.2363 59.0162" stroke="#263357" stroke-width="3" stroke-linecap="round" stroke-linejoin="round"/>
<path d="M14.1698 37.0476L18.4622 40.687L29.1055 29.5048" stroke="#263357" stroke-width="3" stroke-linecap="round" stroke-linejoin="round"/>
<path d="M64.8215 50.8762L49.5935 35.9162L49.3078 35.6459C48.9372 35.2811 48.4333 35.0719 47.9047 35.0637C47.3762 35.0555 46.8655 35.2487 46.483 35.6019C44.6128 37.3367 41.5542 40.159 41.3399 40.3539C41.0986 40.5768 40.8143 40.7516 40.5032 40.8682C40.1922 40.9848 39.8604 41.0408 39.5269 41.0333C39.1933 41.0257 38.8647 40.9545 38.5596 40.824C38.2545 40.6934 37.979 40.5059 37.7488 40.2722L37.3657 39.8762C37.2932 39.801 37.2259 39.7212 37.1644 39.6373C36.7953 39.158 36.6194 38.5648 36.6696 37.9689C36.7198 37.3731 36.9927 36.8153 37.4371 36.4002L45.5738 28.8573C45.9587 28.5203 46.369 28.2114 46.8012 27.9333C48.005 27.1146 49.3875 26.5754 50.8413 26.3573C52.2952 26.1393 53.7814 26.2484 55.1847 26.6762C57.4835 27.355 59.3991 27.4744 61.12 26.915" stroke="#263357" stroke-width="3" stroke-linecap="round" stroke-linejoin="round"/>
<path d="M47.2882 62.819C47.7913 63.4191 48.4706 63.8574 49.2363 64.0762C51.1845 64.7047 52.4833 62.819 52.4833 62.819" stroke="#263357" stroke-width="3" stroke-linecap="round" stroke-linejoin="round"/>
<line y1="-1.5" x2="73.3177" y2="-1.5" transform="matrix(0.88143 0.472315 -0.496895 0.86781 13.171 26.6854)" stroke="#333030" stroke-width="3"/>
</g>
<path d="M83.3858 42.6667C83.3858 62.5489 66.7247 78.6667 46.1723 78.6667C25.6198 78.6667 8.9588 62.5489 8.9588 42.6667C8.9588 22.7844 25.6198 6.66669 46.1723 6.66669C66.7247 6.66669 83.3858 22.7844 83.3858 42.6667ZM13.4265 42.6667C13.4265 60.162 28.0873 74.3447 46.1723 74.3447C64.2573 74.3447 78.9181 60.162 78.9181 42.6667C78.9181 25.1714 64.2573 10.9887 46.1723 10.9887C28.0873 10.9887 13.4265 25.1714 13.4265 42.6667Z" fill="#232121"/>
<defs>
<clipPath id="clip0_234_4">
<rect width="67.5356" height="44" fill="white" transform="translate(13.0936 21.3333)"/>
</clipPath>
</defs>
</svg>
