<svg width="68" height="68" viewBox="0 0 68 68" fill="none" xmlns="http://www.w3.org/2000/svg">
<circle cx="34" cy="34" r="34" fill="url(#paint0_linear_216_3)"/>
<g clip-path="url(#clip0_216_3)">
<path d="M47.6839 21.005L44.3355 23.9628L53.3723 34.2046L56.7208 31.2467L47.6839 21.005Z" fill="#F86464"/>
<path d="M9.47116 31.2431L12.8195 34.2009L20.5653 25.4223L17.2169 22.4645L9.47116 31.2431Z" fill="#61C4F2"/>
<path d="M34.3138 50.4072L34.375 50.3459C34.3535 50.3651 34.333 50.3855 34.3138 50.4072Z" fill="#FABF62"/>
<path d="M52.6181 34.5153C50.3377 36.1511 50.7335 39.0881 46.7946 42.3127" stroke="#263357" stroke-width="3" stroke-linecap="round" stroke-linejoin="round"/>
<path d="M24.9283 42.4195L22.2165 45.1329C21.6056 45.7442 21.6056 46.7352 22.2165 47.3464L22.8994 48.0298C23.5103 48.641 24.5007 48.641 25.1116 48.0298L27.8235 45.3163C28.4343 44.7051 28.4343 43.7141 27.8235 43.1028L27.1405 42.4195C26.5296 41.8082 25.5392 41.8082 24.9283 42.4195Z" stroke="#263357" stroke-width="3" stroke-linecap="round" stroke-linejoin="round"/>
<path d="M20.3724 41.225L19.3662 42.2317C18.7554 42.8429 18.7554 43.834 19.3662 44.4452L20.0492 45.1286C20.6601 45.7398 21.6505 45.7398 22.2614 45.1286L23.2675 44.1218C23.8784 43.5106 23.8784 42.5196 23.2675 41.9084L22.5845 41.225C21.9736 40.6138 20.9832 40.6138 20.3724 41.225Z" stroke="#263357" stroke-width="3" stroke-linecap="round" stroke-linejoin="round"/>
<path d="M34.5164 50.2091L33.3149 51.4207C33.2266 51.5099 33.1287 51.589 33.0228 51.6564C32.6285 51.9253 32.1531 52.0488 31.6779 52.0058C31.2026 51.9628 30.7571 51.756 30.4173 51.4207C30.0454 51.0298 29.838 50.5107 29.838 49.9711C29.838 49.4314 30.0454 48.9123 30.4173 48.5214L31.6235 47.3193C31.9579 46.9866 32.3963 46.7789 32.8654 46.7309C33.3345 46.6828 33.8059 46.7973 34.2007 47.0553C34.3076 47.1268 34.4056 47.2107 34.4928 47.3051C34.5813 47.3906 34.6603 47.4855 34.7284 47.588C35.0084 47.9795 35.1407 48.4575 35.1019 48.9374C35.063 49.4172 34.8556 49.8678 34.5164 50.2091Z" stroke="#263357" stroke-width="3" stroke-linecap="round" stroke-linejoin="round"/>
<path d="M28.4291 44.7074L25.1775 47.9609C24.5666 48.5721 24.5666 49.5631 25.1775 50.1743L25.8605 50.8577C26.4713 51.4689 27.4617 51.4689 28.0726 50.8577L31.3242 47.6042C31.9351 46.9929 31.9351 46.002 31.3242 45.3908L30.6413 44.7074C30.0304 44.0962 29.04 44.0962 28.4291 44.7074Z" stroke="#263357" stroke-width="3" stroke-linecap="round" stroke-linejoin="round"/>
<path d="M56.8961 31.3143L52.9196 34.5813L43.6992 23.9977L47.0019 20.9429" stroke="#263357" stroke-width="3" stroke-linecap="round" stroke-linejoin="round"/>
<path d="M19.1097 41.7329C18.6165 41.3287 18.1447 40.8991 17.6962 40.4459C16.6749 39.4023 15.8313 38.1984 15.1991 36.8819C14.7576 35.8937 14.2621 34.9305 13.7149 33.9967C13.6909 33.9422 13.6592 33.8914 13.6207 33.8459" stroke="#263357" stroke-width="3" stroke-linecap="round" stroke-linejoin="round"/>
<path d="M32.7731 24.95C31.8987 24.3362 30.8949 23.932 29.8393 23.7685C28.7838 23.605 27.7047 23.6866 26.6858 24.0071L26.3371 24.1108" stroke="#263357" stroke-width="3" stroke-linecap="round" stroke-linejoin="round"/>
<path d="M44.1091 47.786C43.7241 48.1692 43.2033 48.3843 42.6603 48.3843C42.1173 48.3843 41.5964 48.1692 41.2115 47.786" stroke="#263357" stroke-width="3" stroke-linecap="round" stroke-linejoin="round"/>
<path d="M36.1654 43.1L41.1502 47.72C41.5332 48.1051 41.7482 48.6263 41.7482 49.1696C41.7482 49.7129 41.5332 50.2341 41.1502 50.6193C40.7256 51.0042 40.1731 51.2174 39.6001 51.2174C39.0272 51.2174 38.4747 51.0042 38.05 50.6193L35.2231 48.2621" stroke="#263357" stroke-width="3" stroke-linecap="round" stroke-linejoin="round"/>
<path d="M9.78082 31.7857L12.8951 34.5153L20.6173 26.1286" stroke="#263357" stroke-width="3" stroke-linecap="round" stroke-linejoin="round"/>
<path d="M46.5308 42.1571L35.4822 30.9371L35.2749 30.7344C35.0061 30.4608 34.6404 30.3039 34.2569 30.2978C33.8735 30.2916 33.503 30.4366 33.2254 30.7014C31.8685 32.0026 29.6493 34.1193 29.4939 34.2654C29.3188 34.4326 29.1126 34.5637 28.8868 34.6511C28.6611 34.7386 28.4204 34.7806 28.1784 34.775C27.9365 34.7693 27.698 34.7159 27.4767 34.618C27.2553 34.52 27.0554 34.3794 26.8884 34.2041L26.6104 33.9071C26.5578 33.8507 26.509 33.7909 26.4643 33.728C26.1966 33.3685 26.069 32.9236 26.1054 32.4767C26.1418 32.0298 26.3398 31.6115 26.6622 31.3001L32.5658 25.643C32.845 25.3902 33.1427 25.1586 33.4563 24.95C34.3297 24.336 35.3327 23.9315 36.3875 23.768C37.4424 23.6045 38.5207 23.6863 39.5389 24.0071C41.2067 24.5163 42.5966 24.6058 43.8452 24.1863" stroke="#263357" stroke-width="3" stroke-linecap="round" stroke-linejoin="round"/>
<path d="M33.8096 51.1143C34.1747 51.5643 34.6675 51.8931 35.2231 52.0571C36.6366 52.5285 37.5789 51.1143 37.5789 51.1143" stroke="#263357" stroke-width="3" stroke-linecap="round" stroke-linejoin="round"/>
</g>
<path d="M61 34C61 48.9117 48.9117 61 34 61C19.0883 61 7 48.9117 7 34C7 19.0883 19.0883 7 34 7C48.9117 7 61 19.0883 61 34ZM7.47355 34C7.47355 48.6502 19.3498 60.5265 34 60.5265C48.6502 60.5265 60.5265 48.6502 60.5265 34C60.5265 19.3498 48.6502 7.47355 34 7.47355C19.3498 7.47355 7.47355 19.3498 7.47355 34Z" fill="#757171"/>
<defs>
<linearGradient id="paint0_linear_216_3" x1="34" y1="0" x2="34" y2="68" gradientUnits="userSpaceOnUse">
<stop stop-color="#EAC8C8"/>
<stop offset="1" stop-color="#E59E9E"/>
</linearGradient>
<clipPath id="clip0_216_3">
<rect width="49" height="33" fill="white" transform="translate(9 20)"/>
</clipPath>
</defs>
</svg>
