<svg width="92" height="88" viewBox="0 0 92 88" fill="none" xmlns="http://www.w3.org/2000/svg">
<rect width="92" height="88" rx="30" fill="#EAC8C8"/>
<g clip-path="url(#clip0_234_56)">
<path d="M64.2452 22.6733L59.7807 26.6171L71.8297 40.2727L76.2944 36.329L64.2452 22.6733Z" fill="#F86464"/>
<path d="M13.2949 36.3241L17.7593 40.2678L28.087 28.563L23.6226 24.6193L13.2949 36.3241Z" fill="#61C4F2"/>
<path d="M46.4184 61.8752L46.4991 61.7944C46.4707 61.8197 46.4437 61.8467 46.4184 61.8752Z" fill="#FABF62"/>
<path d="M70.8241 40.687C67.7836 42.8682 68.3113 46.7842 63.0595 51.0836" stroke="#263357" stroke-width="3" stroke-linecap="round" stroke-linejoin="round"/>
<path d="M33.9045 51.226L30.2886 54.8439C29.4741 55.6589 29.4741 56.9803 30.2886 57.7952L31.1992 58.7064C32.0137 59.5213 33.3343 59.5213 34.1488 58.7064L37.7647 55.0884C38.5791 54.2734 38.5791 52.9521 37.7647 52.1371L36.854 51.226C36.0395 50.411 34.7189 50.411 33.9045 51.226Z" stroke="#263357" stroke-width="3" stroke-linecap="round" stroke-linejoin="round"/>
<path d="M27.8298 49.6333L26.4883 50.9756C25.6738 51.7906 25.6738 53.1119 26.4883 53.9269L27.3989 54.8381C28.2134 55.653 29.534 55.653 30.3485 54.8381L31.69 53.4957C32.5045 52.6808 32.5045 51.3595 31.69 50.5445L30.7794 49.6333C29.9648 48.8184 28.6443 48.8184 27.8298 49.6333Z" stroke="#263357" stroke-width="3" stroke-linecap="round" stroke-linejoin="round"/>
<path d="M46.6885 61.6122L45.0866 63.2276C44.9688 63.3465 44.8382 63.4519 44.6971 63.5419C44.1713 63.9004 43.5375 64.0651 42.9038 64.0078C42.2702 63.9505 41.6761 63.6746 41.2231 63.2276C40.7272 62.7064 40.4507 62.0143 40.4507 61.2947C40.4507 60.5752 40.7272 59.8831 41.2231 59.3619L42.8313 57.759C43.2772 57.3155 43.8617 57.0386 44.4872 56.9745C45.1127 56.9104 45.7411 57.0631 46.2676 57.407C46.4101 57.5024 46.5408 57.6142 46.6571 57.7402C46.7751 57.8542 46.8804 57.9807 46.9712 58.1173C47.3445 58.6393 47.5209 59.2767 47.4691 59.9165C47.4174 60.5563 47.1408 61.157 46.6885 61.6122Z" stroke="#263357" stroke-width="3" stroke-linecap="round" stroke-linejoin="round"/>
<path d="M38.5721 54.2765L34.2366 58.6145C33.4222 59.4295 33.4222 60.7508 34.2366 61.5658L35.1473 62.4769C35.9618 63.2919 37.2823 63.2919 38.0968 62.4769L42.4323 58.1389C43.2468 57.3239 43.2468 56.0026 42.4323 55.1877L41.5217 54.2765C40.7072 53.4615 39.3866 53.4615 38.5721 54.2765Z" stroke="#263357" stroke-width="3" stroke-linecap="round" stroke-linejoin="round"/>
<path d="M76.5281 36.419L71.2262 40.775L58.9322 26.6636L63.3359 22.5905" stroke="#263357" stroke-width="3" stroke-linecap="round" stroke-linejoin="round"/>
<path d="M26.1462 50.3104C25.4887 49.7716 24.8596 49.1987 24.2616 48.5944C22.8998 47.203 21.7751 45.5978 20.9321 43.8424C20.3434 42.5248 19.6828 41.2406 18.9532 39.9956C18.9212 39.9229 18.8789 39.8551 18.8276 39.7944" stroke="#263357" stroke-width="3" stroke-linecap="round" stroke-linejoin="round"/>
<path d="M44.3641 27.9333C43.1982 27.115 41.8598 26.5759 40.4524 26.3579C39.045 26.14 37.6063 26.2488 36.2477 26.6762L35.7828 26.8144" stroke="#263357" stroke-width="3" stroke-linecap="round" stroke-linejoin="round"/>
<path d="M59.4788 58.3813C58.9655 58.8922 58.271 59.179 57.547 59.179C56.8231 59.179 56.1285 58.8922 55.6153 58.3813" stroke="#263357" stroke-width="3" stroke-linecap="round" stroke-linejoin="round"/>
<path d="M48.8872 52.1333L55.5336 58.2933C56.0442 58.8068 56.3309 59.5018 56.3309 60.2262C56.3309 60.9505 56.0442 61.6455 55.5336 62.159C54.9675 62.6722 54.2308 62.9565 53.4668 62.9565C52.7029 62.9565 51.9662 62.6722 51.4 62.159L47.6308 59.0162" stroke="#263357" stroke-width="3" stroke-linecap="round" stroke-linejoin="round"/>
<path d="M13.7077 37.0476L17.8602 40.687L28.1564 29.5048" stroke="#263357" stroke-width="3" stroke-linecap="round" stroke-linejoin="round"/>
<path d="M62.7077 50.8762L47.9763 35.9162L47.6999 35.6459C47.3414 35.2811 46.8539 35.0719 46.3426 35.0637C45.8313 35.0555 45.3373 35.2487 44.9672 35.6019C43.158 37.3367 40.1991 40.159 39.9918 40.3539C39.7584 40.5768 39.4834 40.7516 39.1824 40.8682C38.8815 40.9848 38.5606 41.0408 38.2379 41.0333C37.9153 41.0257 37.5973 40.9545 37.3022 40.824C37.0071 40.6934 36.7405 40.5059 36.5178 40.2722L36.1472 39.8762C36.0771 39.801 36.012 39.7212 35.9525 39.6373C35.5954 39.158 35.4253 38.5648 35.4738 37.9689C35.5224 37.3731 35.7864 36.8153 36.2163 36.4002L44.0877 28.8573C44.46 28.5203 44.8569 28.2114 45.275 27.9333C46.4396 27.1146 47.777 26.5754 49.1834 26.3573C50.5899 26.1393 52.0277 26.2484 53.3851 26.6762C55.609 27.355 57.4622 27.4744 59.1269 26.915" stroke="#263357" stroke-width="3" stroke-linecap="round" stroke-linejoin="round"/>
<path d="M45.7462 62.819C46.2329 63.4191 46.89 63.8574 47.6308 64.0762C49.5154 64.7047 50.7718 62.819 50.7718 62.819" stroke="#263357" stroke-width="3" stroke-linecap="round" stroke-linejoin="round"/>
</g>
<path d="M82 45.3333C82 65.2156 65.8823 81.3333 46 81.3333C26.1177 81.3333 10 65.2156 10 45.3333C10 25.4511 26.1177 9.33331 46 9.33331C65.8823 9.33331 82 25.4511 82 45.3333ZM14.322 45.3333C14.322 62.8286 28.5047 77.0113 46 77.0113C63.4953 77.0113 77.678 62.8286 77.678 45.3333C77.678 27.838 63.4953 13.6553 46 13.6553C28.5047 13.6553 14.322 27.838 14.322 45.3333Z" fill="#232121"/>
<defs>
<clipPath id="clip0_234_56">
<rect width="65.3333" height="44" fill="white" transform="translate(12.6667 21.3333)"/>
</clipPath>
</defs>
</svg>
