<svg width="191" height="88" viewBox="0 0 191 88" fill="none" xmlns="http://www.w3.org/2000/svg">
<rect width="190.667" height="88" rx="30" fill="#AEE2F8"/>
<g clip-path="url(#clip0_234_56)">
<path d="M114.245 22.6733L109.781 26.6171L121.83 40.2727L126.294 36.329L114.245 22.6733Z" fill="#F86464"/>
<path d="M63.2949 36.3241L67.7593 40.2678L78.087 28.563L73.6226 24.6193L63.2949 36.3241Z" fill="#61C4F2"/>
<path d="M96.4184 61.8752L96.4991 61.7944C96.4707 61.8197 96.4437 61.8467 96.4184 61.8752Z" fill="#FABF62"/>
<path d="M120.824 40.687C117.784 42.8682 118.311 46.7842 113.06 51.0836" stroke="#263357" stroke-width="3" stroke-linecap="round" stroke-linejoin="round"/>
<path d="M83.9045 51.226L80.2886 54.8439C79.4741 55.6589 79.4741 56.9803 80.2886 57.7952L81.1992 58.7064C82.0137 59.5213 83.3343 59.5213 84.1488 58.7064L87.7647 55.0884C88.5791 54.2734 88.5791 52.9521 87.7647 52.1371L86.854 51.226C86.0395 50.411 84.7189 50.411 83.9045 51.226Z" stroke="#263357" stroke-width="3" stroke-linecap="round" stroke-linejoin="round"/>
<path d="M77.8298 49.6333L76.4883 50.9756C75.6738 51.7906 75.6738 53.1119 76.4883 53.9269L77.3989 54.8381C78.2134 55.653 79.534 55.653 80.3485 54.8381L81.69 53.4957C82.5045 52.6808 82.5045 51.3595 81.69 50.5445L80.7794 49.6333C79.9648 48.8184 78.6443 48.8184 77.8298 49.6333Z" stroke="#263357" stroke-width="3" stroke-linecap="round" stroke-linejoin="round"/>
<path d="M96.6885 61.6122L95.0866 63.2276C94.9688 63.3465 94.8382 63.4519 94.6971 63.5419C94.1713 63.9004 93.5375 64.0651 92.9038 64.0078C92.2702 63.9505 91.6761 63.6746 91.2231 63.2276C90.7272 62.7064 90.4507 62.0143 90.4507 61.2947C90.4507 60.5752 90.7272 59.8831 91.2231 59.3619L92.8313 57.759C93.2772 57.3155 93.8617 57.0386 94.4872 56.9745C95.1127 56.9104 95.7411 57.0631 96.2676 57.407C96.4101 57.5024 96.5408 57.6142 96.6571 57.7402C96.7751 57.8542 96.8804 57.9807 96.9712 58.1173C97.3445 58.6393 97.5209 59.2767 97.4691 59.9165C97.4174 60.5563 97.1408 61.157 96.6885 61.6122Z" stroke="#263357" stroke-width="3" stroke-linecap="round" stroke-linejoin="round"/>
<path d="M88.5721 54.2765L84.2366 58.6145C83.4222 59.4295 83.4222 60.7508 84.2366 61.5658L85.1473 62.4769C85.9618 63.2919 87.2823 63.2919 88.0968 62.4769L92.4323 58.1389C93.2468 57.3239 93.2468 56.0026 92.4323 55.1877L91.5217 54.2765C90.7072 53.4615 89.3866 53.4615 88.5721 54.2765Z" stroke="#263357" stroke-width="3" stroke-linecap="round" stroke-linejoin="round"/>
<path d="M126.528 36.419L121.226 40.775L108.932 26.6636L113.336 22.5905" stroke="#263357" stroke-width="3" stroke-linecap="round" stroke-linejoin="round"/>
<path d="M76.1462 50.3104C75.4887 49.7716 74.8596 49.1987 74.2616 48.5944C72.8998 47.203 71.7751 45.5978 70.9321 43.8424C70.3434 42.5248 69.6828 41.2406 68.9532 39.9956C68.9212 39.9229 68.8789 39.8551 68.8276 39.7944" stroke="#263357" stroke-width="3" stroke-linecap="round" stroke-linejoin="round"/>
<path d="M94.3641 27.9333C93.1982 27.115 91.8598 26.5759 90.4524 26.3579C89.045 26.14 87.6063 26.2488 86.2477 26.6762L85.7828 26.8144" stroke="#263357" stroke-width="3" stroke-linecap="round" stroke-linejoin="round"/>
<path d="M109.479 58.3813C108.966 58.8922 108.271 59.179 107.547 59.179C106.823 59.179 106.129 58.8922 105.615 58.3813" stroke="#263357" stroke-width="3" stroke-linecap="round" stroke-linejoin="round"/>
<path d="M98.8872 52.1333L105.534 58.2933C106.044 58.8068 106.331 59.5018 106.331 60.2262C106.331 60.9505 106.044 61.6455 105.534 62.159C104.967 62.6722 104.231 62.9565 103.467 62.9565C102.703 62.9565 101.966 62.6722 101.4 62.159L97.6308 59.0162" stroke="#263357" stroke-width="3" stroke-linecap="round" stroke-linejoin="round"/>
<path d="M63.7077 37.0476L67.8602 40.687L78.1564 29.5048" stroke="#263357" stroke-width="3" stroke-linecap="round" stroke-linejoin="round"/>
<path d="M112.708 50.8762L97.9763 35.9162L97.6999 35.6459C97.3414 35.2811 96.8539 35.0719 96.3426 35.0637C95.8313 35.0555 95.3373 35.2487 94.9672 35.6019C93.158 37.3367 90.1991 40.159 89.9918 40.3539C89.7584 40.5768 89.4834 40.7516 89.1824 40.8682C88.8815 40.9848 88.5606 41.0408 88.2379 41.0333C87.9153 41.0257 87.5973 40.9545 87.3022 40.824C87.0071 40.6934 86.7405 40.5059 86.5178 40.2722L86.1472 39.8762C86.0771 39.801 86.012 39.7212 85.9525 39.6373C85.5954 39.158 85.4253 38.5648 85.4738 37.9689C85.5224 37.3731 85.7864 36.8153 86.2163 36.4002L94.0877 28.8573C94.46 28.5203 94.8569 28.2114 95.275 27.9333C96.4396 27.1146 97.777 26.5754 99.1834 26.3573C100.59 26.1393 102.028 26.2484 103.385 26.6762C105.609 27.355 107.462 27.4744 109.127 26.915" stroke="#263357" stroke-width="3" stroke-linecap="round" stroke-linejoin="round"/>
<path d="M95.7462 62.819C96.2329 63.4191 96.89 63.8574 97.6308 64.0762C99.5154 64.7047 100.772 62.819 100.772 62.819" stroke="#263357" stroke-width="3" stroke-linecap="round" stroke-linejoin="round"/>
</g>
<path d="M132 45.3333C132 65.2156 115.882 81.3333 96 81.3333C76.1177 81.3333 60 65.2156 60 45.3333C60 25.4511 76.1177 9.33331 96 9.33331C115.882 9.33331 132 25.4511 132 45.3333ZM64.322 45.3333C64.322 62.8286 78.5047 77.0113 96 77.0113C113.495 77.0113 127.678 62.8286 127.678 45.3333C127.678 27.838 113.495 13.6553 96 13.6553C78.5047 13.6553 64.322 27.838 64.322 45.3333Z" fill="#232121"/>
<defs>
<clipPath id="clip0_234_56">
<rect width="65.3333" height="44" fill="white" transform="translate(62.6667 21.3333)"/>
</clipPath>
</defs>
</svg>
